<svg xmlns="http://www.w3.org/2000/svg" viewBox="0 0 132.5 114.0" width="132.5" height="114.0"><g transform="scale(0.16666666666666666)"><g transform="translate(0.000000,684.000000) scale(0.100000,-0.100000)" fill="#102240" stroke="none"><path d="M492 5307 c4 -1163 8 -1538 17 -1555 12 -22 14 -22 229 -22 119 0
222 4 229 8 32 20 33 66 33 1583 l0 1519 -256 0 -257 0 5 -1533z"/>
<path d="M3876 6425 c-77 -13 -161 -33 -187 -44 -26 -12 -54 -21 -61 -21 -21
0 -246 -116 -285 -147 -67 -54 -193 -178 -193 -191 0 -7 -7 -15 -15 -18 -16
-7 -105 -135 -105 -152 0 -6 -11 -23 -24 -39 -13 -15 -29 -46 -36 -68 -7 -22
-19 -47 -27 -57 -8 -9 -21 -42 -30 -74 -8 -32 -21 -71 -30 -87 -20 -39 -60
-251 -68 -365 -6 -91 -2 -123 45 -347 34 -161 186 -446 317 -596 78 -89 217
-199 251 -199 6 0 23 -10 39 -23 40 -33 171 -94 218 -102 22 -3 74 -18 115
-32 133 -47 579 -44 689 4 20 8 61 21 93 29 31 7 73 25 93 39 21 14 46 25 55
25 10 0 28 8 41 19 13 10 42 28 64 40 49 27 104 66 127 91 10 10 24 22 31 27
7 4 46 46 86 93 40 46 81 90 92 98 23 16 25 64 4 86 -9 9 -39 22 -67 31 -28 8
-62 22 -75 31 -14 8 -42 22 -64 29 -22 8 -54 24 -70 36 -16 11 -52 23 -82 26
-55 6 -93 -17 -174 -103 -12 -13 -26 -24 -31 -24 -5 0 -21 -11 -36 -25 -15
-14 -32 -25 -38 -25 -6 0 -41 -13 -77 -29 -196 -86 -409 -90 -606 -10 -27 12
-66 25 -85 31 -19 6 -48 21 -63 34 -16 13 -33 24 -38 24 -19 0 -128 107 -173
170 -33 47 -96 171 -96 190 0 9 -9 33 -20 55 -11 22 -20 47 -20 57 0 10 9 27
20 38 20 20 33 20 989 20 1136 0 1011 -21 1011 169 0 161 -15 268 -56 391 -45
137 -83 231 -100 250 -7 9 -20 31 -29 50 -23 50 -56 97 -162 230 -68 86 -187
175 -320 239 -34 17 -64 35 -67 40 -4 5 -21 13 -39 16 -17 4 -57 18 -87 30
-71 30 -304 65 -417 64 -48 -1 -151 -12 -227 -24z m363 -480 c269 -57 418
-171 541 -415 65 -129 116 -120 -670 -120 -410 0 -679 4 -694 10 -38 14 -36
77 2 133 16 23 43 65 62 92 101 153 249 251 449 300 125 30 166 30 310 0z"/>
<path d="M6650 6443 c-104 -10 -230 -37 -277 -59 -30 -13 -60 -24 -67 -24 -42
0 -239 -126 -321 -207 -178 -173 -272 -348 -322 -598 -23 -120 -23 -120 -22
-941 1 -788 2 -823 20 -853 19 -31 19 -31 229 -31 232 0 250 5 250 68 0 15 0
388 0 830 0 880 -1 864 60 992 63 133 135 204 277 275 322 162 765 18 883
-287 43 -109 43 -116 49 -991 6 -849 6 -849 30 -868 38 -31 419 -29 447 2 18
20 19 49 19 883 0 928 -3 984 -52 1101 -101 242 -224 398 -406 517 -59 38
-196 106 -232 114 -16 4 -43 13 -59 21 -16 8 -103 26 -194 39 -154 22 -224 26
-312 17z"/>
<path d="M2099 6378 c-22 -24 -50 -55 -64 -69 -14 -15 -25 -34 -25 -43 0 -9
-11 -21 -25 -26 -14 -5 -25 -14 -25 -19 0 -6 -13 -25 -29 -43 -28 -31 -78 -91
-139 -166 -26 -31 -37 -44 -135 -155 -27 -30 -56 -65 -65 -79 -9 -14 -37 -52
-62 -83 -25 -32 -52 -68 -60 -80 -22 -33 -72 -98 -84 -110 -6 -5 -32 -37 -58
-70 -45 -57 -55 -71 -112 -141 -72 -88 -106 -141 -106 -161 0 -21 132 -187
214 -269 29 -30 120 -129 176 -193 14 -15 39 -45 55 -66 92 -116 114 -143 190
-229 17 -18 41 -47 55 -64 14 -17 37 -46 52 -64 15 -18 45 -55 67 -83 58 -71
91 -110 206 -241 99 -112 110 -125 185 -214 40 -47 83 -96 96 -110 59 -64 267
-310 280 -332 5 -7 22 -24 37 -36 28 -21 33 -21 310 -17 212 3 283 8 289 17
15 24 8 54 -19 80 -16 14 -56 62 -91 105 -34 43 -117 143 -183 223 -67 80
-135 162 -152 184 -18 21 -42 50 -54 65 -159 188 -248 296 -308 371 -20 25
-46 56 -58 70 -12 14 -89 104 -172 200 -82 96 -163 188 -180 206 -61 65 -145
161 -209 239 -36 44 -80 94 -97 112 -35 36 -35 90 0 115 17 12 66 68 129 146
15 19 37 43 48 55 21 21 135 155 190 222 13 17 75 90 137 164 61 73 121 145
132 160 11 15 29 37 40 49 11 12 30 34 42 49 12 16 35 44 50 63 16 19 40 51
55 70 14 20 55 66 91 103 133 136 131 137 -260 137 -315 0 -315 0 -354 -42z"/>
<path d="M2065 3189 c-30 -7 -56 -27 -108 -80 -69 -71 -69 -71 -65 -152 3 -77
6 -85 42 -132 45 -58 135 -114 185 -115 30 0 137 49 183 84 48 36 61 159 25
247 -49 121 -145 175 -262 148z"/>
<path d="M2370 2755 c-19 -23 -8 -26 19 -4 16 13 18 19 8 19 -8 0 -20 -7 -27
-15z"/>
<path d="M772 1563 c-30 -6 -127 -96 -142 -133 -24 -57 -5 -135 45 -186 44
-44 44 -44 129 -44 74 0 86 2 86 17 0 9 9 26 19 37 52 56 48 173 -8 225 -59
55 -101 91 -103 90 -2 -1 -13 -4 -26 -6z"/>
<path d="M2790 926 c-8 -8 -37 -20 -65 -26 -148 -34 -213 -75 -231 -146 -10
-41 3 -122 26 -153 11 -16 20 -38 20 -48 0 -21 89 -53 145 -53 71 0 146 76
172 172 18 70 17 76 -14 116 -27 36 -32 71 -18 125 8 31 -10 37 -35 13z"/></g><g transform="translate(0.000000,684.000000) scale(0.100000,-0.100000)" fill="#1A6EF5" stroke="none"><path d="M6565 3350 c-22 -5 -56 -15 -75 -23 -19 -8 -61 -20 -92 -26 -31 -7
-62 -19 -69 -27 -6 -8 -35 -21 -64 -30 -30 -8 -59 -22 -66 -30 -7 -8 -26 -22
-42 -30 -33 -18 -114 -78 -139 -105 -10 -10 -24 -21 -31 -26 -28 -17 -207
-240 -207 -257 0 -5 -8 -20 -18 -34 -35 -50 -93 -243 -114 -380 -30 -189 -40
-181 250 -184 331 -3 311 -10 322 104 19 194 151 397 310 476 150 73 388 72
538 -3 84 -42 201 -153 238 -227 41 -80 87 -264 80 -318 -7 -64 -58 -223 -95
-300 -44 -91 -77 -133 -174 -225 -85 -80 -110 -102 -199 -172 -97 -77 -112
-88 -138 -103 -27 -15 -114 -73 -174 -118 -30 -21 -47 -33 -146 -103 -25 -17
-67 -50 -95 -73 -27 -23 -62 -49 -77 -59 -64 -40 -326 -315 -395 -413 -112
-160 -214 -508 -183 -621 13 -43 13 -43 1091 -43 1077 0 1077 0 1089 36 8 22
12 109 13 226 1 188 1 191 -22 209 -22 18 -55 19 -752 19 -669 0 -729 1 -737
17 -13 22 3 74 27 93 10 8 38 37 61 64 36 42 124 120 225 199 30 23 73 50 195
122 36 21 96 59 134 84 38 25 85 57 106 71 35 23 122 83 174 120 12 8 31 24
42 35 12 11 50 45 85 75 35 30 98 88 139 130 70 70 90 93 155 176 56 72 135
250 150 341 19 106 31 148 51 163 21 18 20 221 -2 255 -9 13 -26 77 -39 142
-22 109 -42 168 -80 233 -8 14 -25 46 -39 72 -29 53 -178 210 -229 242 -18 12
-48 30 -67 41 -18 11 -44 29 -59 41 -41 32 -156 82 -216 93 -30 6 -76 20 -102
33 -45 21 -62 23 -273 25 -124 1 -243 -2 -265 -7z"/>
<path d="M4625 3293 c-24 -4 -71 -49 -121 -113 -68 -86 -246 -301 -324 -390
-26 -30 -80 -98 -118 -150 -81 -109 -124 -166 -167 -220 -16 -21 -40 -51 -52
-66 -76 -98 -110 -140 -213 -264 -63 -75 -128 -154 -145 -175 -16 -21 -59 -72
-95 -115 -36 -42 -78 -93 -95 -114 -16 -21 -55 -69 -85 -106 -30 -37 -71 -89
-90 -114 -19 -26 -60 -77 -90 -114 -117 -141 -109 -116 -113 -376 -4 -228 -4
-228 20 -237 14 -5 357 -9 811 -9 697 0 790 -2 810 -16 22 -15 22 -16 22 -319
0 -434 -25 -395 255 -395 287 0 260 -40 260 389 0 384 -17 356 203 347 198 -8
190 -17 191 217 1 96 -3 186 -8 200 -15 39 -63 49 -217 45 -132 -2 -137 -2
-155 21 -18 22 -19 51 -21 585 -4 737 -4 997 1 1251 4 269 27 245 -243 244
-110 -1 -210 -4 -221 -6z m-50 -795 c3 -7 6 -296 8 -642 4 -567 3 -630 -12
-645 -24 -24 -1050 -22 -1065 2 -12 19 -22 5 166 229 149 176 239 287 293 358
75 98 195 246 240 296 17 18 42 47 57 66 15 18 39 47 52 63 14 17 54 65 90
108 36 43 66 83 66 88 0 14 76 89 90 89 6 0 13 -6 15 -12z"/>
<path d="M1357 3111 c-115 -5 -130 -8 -145 -27 -14 -18 -32 -23 -97 -28 -58
-5 -86 -12 -100 -26 -11 -11 -44 -24 -72 -30 -28 -6 -59 -20 -69 -31 -9 -10
-35 -24 -58 -30 -22 -6 -51 -22 -63 -35 -12 -13 -30 -24 -41 -24 -10 0 -29
-11 -41 -24 -13 -14 -36 -30 -52 -36 -15 -7 -35 -23 -44 -36 -8 -13 -22 -24
-30 -24 -7 0 -23 -13 -35 -30 -12 -16 -28 -30 -35 -30 -8 0 -20 -10 -26 -22
-10 -19 -34 -46 -142 -158 -13 -14 -32 -40 -41 -58 -9 -18 -26 -42 -37 -53
-10 -10 -19 -25 -19 -32 0 -7 -11 -28 -25 -47 -14 -19 -30 -53 -36 -75 -6 -22
-18 -47 -26 -57 -8 -9 -23 -47 -33 -85 -10 -37 -25 -81 -33 -98 -14 -29 -40
-203 -53 -365 -7 -92 28 -379 55 -448 10 -26 22 -67 26 -92 4 -25 17 -61 30
-80 13 -19 27 -52 31 -73 3 -21 17 -50 29 -65 12 -15 28 -44 34 -64 7 -21 18
-41 25 -45 8 -5 23 -26 35 -48 44 -80 66 -108 191 -230 116 -115 244 -215 274
-215 6 0 19 -9 28 -19 9 -11 36 -25 60 -31 23 -7 54 -22 69 -34 15 -13 48 -26
74 -29 26 -4 60 -16 77 -28 21 -16 59 -25 136 -35 59 -7 132 -21 162 -29 68
-20 302 -14 395 10 33 9 93 20 134 25 41 6 87 19 105 30 18 11 57 25 87 31 30
6 66 20 81 31 15 10 50 26 77 34 28 8 53 19 57 25 4 6 26 20 50 31 24 10 44
23 44 28 0 5 15 17 33 26 93 48 166 144 108 144 -26 0 -81 -20 -81 -30 0 -26
-173 -131 -295 -179 -70 -27 -174 -70 -212 -87 -35 -16 -99 -19 -108 -5 -6 11
22 41 39 41 7 0 22 13 34 29 12 16 34 32 50 36 16 3 40 17 52 31 13 13 29 24
37 24 7 0 25 11 40 25 16 13 47 40 70 58 23 19 60 56 83 83 22 27 52 60 65 74
14 14 25 30 25 37 0 6 12 25 26 42 14 17 30 48 36 68 6 21 19 48 29 62 10 13
24 42 30 65 5 22 19 54 30 69 64 89 66 642 3 821 -13 38 -24 79 -24 91 0 11
-9 39 -21 60 -12 22 -28 54 -36 70 -9 17 -24 39 -35 50 -21 23 -60 77 -85 119
-10 17 -27 39 -38 51 -11 11 -28 33 -38 48 -9 15 -24 27 -32 27 -9 0 -20 11
-27 25 -6 14 -23 27 -39 30 -15 4 -31 15 -34 25 -3 10 -19 23 -36 30 -16 7
-38 23 -48 36 -10 13 -37 30 -60 40 -22 9 -41 20 -41 24 0 10 -20 18 -90 36
-30 8 -61 21 -70 29 -17 15 -67 26 -255 56 -146 23 -285 20 -339 -8 -16 -9
-70 -22 -120 -29 -62 -9 -96 -19 -111 -34 -12 -11 -32 -20 -46 -20 -34 0 -99
-19 -99 -30 0 -4 -20 -16 -44 -25 -24 -9 -54 -28 -65 -41 -11 -13 -26 -24 -33
-24 -14 0 -24 -9 -155 -138 -50 -50 -103 -109 -117 -131 -15 -23 -30 -41 -35
-41 -5 0 -15 -17 -21 -37 -7 -21 -21 -47 -32 -59 -10 -12 -22 -44 -27 -72 -5
-35 -15 -57 -31 -70 -21 -17 -24 -29 -28 -113 -7 -167 -42 -131 -50 51 -4 101
-2 121 16 165 12 28 26 79 32 115 5 35 19 77 30 92 11 14 22 45 26 67 4 25 18
52 35 71 16 16 29 39 29 50 0 11 14 32 30 47 17 14 30 31 30 37 0 6 11 22 24
36 14 14 65 68 115 120 50 52 111 111 137 130 26 19 59 46 74 60 15 14 43 33
63 42 21 10 37 22 37 27 0 5 19 16 42 26 23 9 55 27 71 41 16 13 37 24 48 24
24 0 54 15 78 39 11 11 42 21 77 25 34 4 74 17 94 30 68 44 485 41 571 -4 31
-16 39 -17 55 -6 27 20 9 67 -31 78 -41 12 -273 17 -428 9z m115 -537 c24 -15
1 -33 -64 -50 -62 -16 -74 -23 -76 -42 -3 -23 -3 -23 105 -17 59 3 121 8 137
10 30 5 183 -30 202 -46 7 -5 43 -20 80 -33 79 -27 175 -64 179 -68 1 -2 22
-26 46 -54 24 -28 58 -67 74 -88 17 -20 45 -54 63 -75 17 -21 32 -45 32 -53 0
-8 11 -29 24 -47 14 -18 28 -51 31 -73 4 -22 18 -63 30 -92 16 -34 26 -85 33
-154 8 -89 13 -107 34 -130 77 -82 78 -101 29 -501 -7 -49 -18 -92 -27 -102
-8 -9 -19 -45 -24 -80 -7 -47 -15 -67 -34 -83 -13 -12 -27 -36 -31 -54 -4 -18
-16 -37 -27 -43 -11 -6 -26 -26 -34 -46 -15 -36 -137 -161 -195 -201 -19 -12
-50 -34 -69 -47 -19 -14 -53 -34 -75 -44 -22 -11 -51 -27 -65 -35 -98 -56
-135 -68 -255 -77 -66 -6 -151 -17 -189 -26 -74 -16 -86 -16 -291 15 -103 16
-146 28 -205 56 -110 53 -270 152 -270 167 0 4 -8 10 -19 14 -50 16 -239 225
-281 311 -11 23 -27 47 -35 54 -8 7 -22 37 -31 68 -9 30 -24 69 -34 86 -10 17
-22 54 -26 81 -4 28 -15 79 -26 115 -12 42 -22 127 -29 242 -10 171 -10 177
10 205 13 18 26 61 35 117 9 60 19 94 31 102 9 7 23 33 31 59 7 26 25 58 39
71 14 13 25 30 25 38 0 16 86 127 138 178 17 17 43 43 60 60 7 7 28 26 46 42
19 15 46 39 60 52 15 13 44 33 65 43 20 11 43 27 50 35 7 9 32 21 55 27 22 6
57 21 76 33 27 18 60 26 146 35 61 6 136 19 165 27 91 28 249 37 281 18z"/>
<path d="M1188 2428 c-13 -13 -35 -30 -49 -38 -43 -24 -129 -91 -129 -100 0
-5 -18 -27 -40 -50 -22 -23 -40 -50 -40 -59 0 -10 -11 -23 -24 -29 -15 -7 -26
-22 -30 -45 -3 -18 -17 -44 -31 -57 -20 -19 -25 -33 -25 -72 0 -67 24 -65 40
5 8 29 23 62 37 74 13 12 26 36 30 53 3 17 16 38 29 46 12 9 27 29 33 45 5 16
15 29 20 29 6 0 36 25 66 55 31 30 62 55 69 55 7 0 23 11 36 25 13 14 42 30
64 36 80 21 89 49 16 49 -39 0 -55 -5 -72 -22z"/>
<path d="M769 1868 c-8 -16 -10 -61 -6 -154 4 -95 3 -134 -6 -143 -9 -10 -7
-12 11 -9 23 3 23 5 29 166 5 163 0 192 -28 140z"/>
<path d="M2332 1380 c-6 -14 -13 -41 -17 -61 -3 -20 -16 -45 -29 -56 -13 -11
-26 -37 -30 -57 -4 -22 -16 -42 -31 -52 -13 -8 -28 -29 -34 -45 -5 -16 -17
-29 -25 -29 -8 0 -21 -9 -29 -21 -28 -40 -186 -162 -224 -173 -38 -12 -26 -26
20 -26 31 0 49 6 62 20 10 11 23 20 29 20 34 0 226 177 226 208 0 5 13 26 29
46 16 20 32 51 35 70 4 19 13 39 21 46 20 17 29 73 17 107 -9 28 -9 28 -20 3z"/>
<path d="M819 1191 c41 -6 46 -10 83 -71 67 -111 242 -259 325 -275 21 -3 52
-15 68 -25 26 -16 93 -25 153 -21 27 2 10 21 -25 27 -21 4 -54 14 -73 24 -19
10 -53 23 -75 30 -22 7 -56 25 -75 40 -19 15 -45 30 -57 34 -11 4 -62 47 -112
96 -50 50 -95 90 -101 90 -6 0 -16 14 -21 30 -11 29 -13 30 -72 28 -59 -1 -60
-1 -18 -7z"/>
<path d="M1710 823 c-25 -3 -49 -9 -55 -15 -14 -15 123 -4 138 11 12 12 10 12
-83 4z"/>
<path d="M2392 2754 c-22 -15 -31 -54 -12 -54 14 0 138 -128 166 -172 13 -20
28 -39 34 -43 6 -4 22 -24 36 -46 19 -31 30 -39 54 -39 83 0 43 84 -122 253
-121 125 -122 125 -156 101z"/></g></g></svg>